{"title":"Tomorrowland(2015)MP-4[DaScubaDude]","uid":13045807,"size":1297897666,"categoryP":"video","categoryS":"movies","magnet":"?xt=urn:btih:f66ab26ca074b0d37ad89af7d56cc0319e4db73a&amp;dn=Tomorrowland%282015%29MP-4%5BDaScubaDude%5D&amp;tr=udp%3A%2F%2Ftracker.leechers-paradise.org%3A6969&amp;tr=udp%3A%2F%2Fzer0day.ch%3A1337&amp;tr=udp%3A%2F%2Fopen.demonii.com%3A1337&amp;tr=udp%3A%2F%2Ftracker.coppersurfer.tk%3A6969&amp;tr=udp%3A%2F%2Fexodus.desync.com%3A6969","seeders":0,"leechers":0,"uploader":"dascuba","files":1,"time":1450571356,"description":"Tomorrowland (2015)\r\nPG  |  130 min  |  Action, Adventure, Family  |  22 May 2015 (USA)\r\n6.5 Your rating:   -/10   Ratings: 6.5/10 from 96,473 users   Metascore: 60/100 \r\nReviews: 435 user | 424 critic | 47 from Metacritic.com\r\nBound by a shared destiny, a teen bursting with scientific curiosity and a former boy-genius inventor embark on a mission to unearth the secrets of a place somewhere in time and space that exists in their collective memory.\r\n\r\nDirector: Brad Bird\r\nWriters: Damon Lindelof (screenplay), Brad Bird (screenplay), 3 more credits »\r\nStars: George Clooney, Britt Robertson, Hugh Laurie\r\n\r\nGeneral\r\nComplete name                            : TomorrowlandTOMORROWLAND_Title1_1.mp4\r\nFormat                                   : MPEG-4\r\nFormat profile                           : Base Media\r\nCodec ID                                 : isom\r\nFile size                                : 1.21 GiB\r\nDuration                                 : 2h 9mn\r\nOverall bit rate                         : 1 332 Kbps\r\nMovie name                               : TOMORROWLAND\r\nGenre                                    : Adventure\r\nWriting application                      : Lavf54.6.100\r\n\r\nVideo\r\nID                                       : 1\r\nFormat                                   : AVC\r\nFormat/Info                              : Advanced Video Codec\r\nFormat profile                           :   \r\nFormat settings, CABAC                   : No\r\nFormat settings, ReFrames                : 6 frames\r\nCodec ID                                 : avc1\r\nCodec ID/Info                            : Advanced Video Coding\r\nDuration                                 : 2h 9mn\r\nBit rate                                 : 1 197 Kbps\r\nWidth                                    : 720 pixels\r\nHeight                                   : 404 pixels\r\nDisplay aspect ratio                     : 16:9\r\nFrame rate mode                          : Constant\r\nFrame rate                               : 29.970 fps\r\nColor space                              : YUV\r\nChroma subsampling                       : 4:2:0\r\nBit depth                                : 8 bits\r\nScan type                                : Progressive\r\nBits/(Pixel*Frame)                       : 0.137\r\nStream size                              : 1.09 GiB (90%)\r\n\r\nAudio\r\nID                                       : 2\r\nFormat                                   : AAC\r\nFormat/Info                              : Advanced Audio Codec\r\nFormat profile                           : LC\r\nCodec ID                                 : 40\r\nDuration                                 : 2h 9mn\r\nBit rate mode                            : Constant\r\nBit rate                                 : 128 Kbps\r\nChannel(s)                               : 2 channels\r\nChannel positions                        : Front: L R\r\nSampling rate                            : 44.1 KHz\r\nCompression mode                         : Lossy\r\nStream size                              : 119 MiB (10%)","torrent":{"xt":"urn:btih:f66ab26ca074b0d37ad89af7d56cc0319e4db73a","amp;dn":"Tomorrowland%282015%29MP-4%5BDaScubaDude%5D","amp;tr":["udp%3A%2F%2Ftracker.leechers-paradise.org%3A6969","udp%3A%2F%2Fzer0day.ch%3A1337","udp%3A%2F%2Fopen.demonii.com%3A1337","udp%3A%2F%2Ftracker.coppersurfer.tk%3A6969","udp%3A%2F%2Fexodus.desync.com%3A6969"],"infoHash":"f66ab26ca074b0d37ad89af7d56cc0319e4db73a","infoHashBuffer":{"type":"Buffer","data":[246,106,178,108,160,116,176,211,122,216,154,247,213,108,192,49,158,77,183,58]},"announce":[],"urlList":[]}}